<svg width="100" height="100" viewBox="0 0 100 100" fill="none" xmlns="http://www.w3.org/2000/svg">
<g clip-path="url(#clip0_1511_3)">
<rect width="100" height="100" rx="50" fill="white"/>
<rect width="100" height="51" fill="#A5C5ED"/>
<rect y="51" width="100" height="51" fill="#FF647D"/>
<rect width="48" height="100" fill="#9164CC"/>
<path d="M56.3623 85.5217L50.7857 76.0879H48.416V71.1317H53.6114L56.0184 75.1983L66.1026 55.157L73.3013 71.1317H84.9927V76.0879H70.1019L65.8559 66.669L56.3623 85.5217Z" fill="white"/>
<path d="M44.7307 46.5084V15.7401H39.7746V18.79C37.9795 17.1825 35.8204 16.0357 33.4835 15.4483C31.1465 14.8609 28.7018 14.8506 26.3599 15.4183C24.0181 15.9859 21.8495 17.1146 20.0409 18.7068C18.2323 20.2991 16.838 22.3073 15.9782 24.5584C15.1184 26.8094 14.8189 29.2357 15.1055 31.6283C15.392 34.0208 16.2561 36.3078 17.6232 38.2921C18.9903 40.2764 20.8194 41.8985 22.9528 43.0186C25.0863 44.1387 27.4602 44.7233 29.8698 44.7218C33.5275 44.7247 37.0563 43.3717 39.7746 40.9244V46.5084H29.8773C25.9391 46.5064 22.161 48.0669 19.3721 50.8474C16.5832 53.6279 15.0113 57.4013 15.0014 61.3394V70.3098C15.0014 74.2492 16.5663 78.0272 19.3519 80.8128C22.1375 83.5983 25.9155 85.1633 29.8549 85.1633C33.7942 85.1633 37.5723 83.5983 40.3578 80.8128C43.1434 78.0272 44.7083 74.2492 44.7083 70.3098V46.5084H44.7307ZM39.7746 70.3098C39.7746 72.9347 38.7319 75.4522 36.8757 77.3083C35.0196 79.1644 32.5022 80.2071 29.8773 80.2071C27.2524 80.2071 24.7349 79.1644 22.8788 77.3083C21.0227 75.4522 19.98 72.9347 19.98 70.3098V61.3394C19.9899 58.7196 21.0365 56.2102 22.8911 54.3598C24.7457 52.5094 27.2575 51.4685 29.8773 51.4646H39.7746V70.3098ZM29.8698 39.7657C27.909 39.7672 25.9919 39.1871 24.3608 38.0988C22.7298 37.0105 21.4581 35.463 20.7068 33.6519C19.9554 31.8408 19.758 29.8475 20.1396 27.9242C20.5213 26.001 21.4647 24.2341 22.8507 22.8471C24.2366 21.4601 26.0028 20.5153 27.9258 20.1322C29.8488 19.7491 31.8422 19.945 33.6539 20.695C35.4655 21.445 37.0141 22.7155 38.1036 24.3457C39.1931 25.9759 39.7746 27.8927 39.7746 29.8534C39.7707 32.4798 38.7261 34.9976 36.8696 36.8555C35.0132 38.7133 32.4962 39.7598 29.8698 39.7657Z" fill="white"/>
<path d="M66.7901 51.4646C70.8054 51.4613 74.7073 50.132 77.8895 47.6833C81.0717 45.2345 83.3561 41.8034 84.3879 37.9229C85.4197 34.0424 85.141 29.9297 83.5952 26.2239C82.0495 22.518 79.3231 19.4264 75.8397 17.4292C72.3562 15.4321 68.3108 14.6412 64.3317 15.1796C60.3526 15.7179 56.6627 17.5552 53.8351 20.4062C51.0076 23.2571 49.2007 26.962 48.6952 30.9454C48.1897 34.9288 49.0139 38.9676 51.0396 42.4345L55.323 39.9302C53.8453 37.4032 53.2438 34.4589 53.6118 31.5548C53.9798 28.6507 55.2969 25.9495 57.3582 23.871C59.4195 21.7925 62.1097 20.4531 65.0106 20.061C67.9115 19.6689 70.8608 20.2459 73.4 21.7026C75.9391 23.1592 77.926 25.4138 79.0519 28.116C80.1778 30.8181 80.3795 33.8165 79.6258 36.6451C78.8721 39.4738 77.2051 41.9742 74.8839 43.7579C72.5628 45.5415 69.7174 46.5085 66.7901 46.5085H44.7305V51.4646H66.7901Z" fill="white"/>
</g>
<defs>
<clipPath id="clip0_1511_3">
<rect width="100" height="100" rx="50" fill="white"/>
</clipPath>
</defs>
</svg>
